<?xml version="1.0" standalone="no"?><!DOCTYPE svg PUBLIC "-//W3C//DTD SVG 1.1//EN" "http://www.w3.org/Graphics/SVG/1.1/DTD/svg11.dtd"><svg t="1700812739308" class="icon" viewBox="0 0 1024 1024" version="1.1" xmlns="http://www.w3.org/2000/svg" p-id="1094" xmlns:xlink="http://www.w3.org/1999/xlink" width="16" height="16"><path d="M411.99455056 477.16769653c-17.42338397-3.46080886-33.65338507 10.62110359-33.65338509 28.40250195V565.7166739c0 12.17250083 8.47301554 21.95823715 19.92948701 26.25441389 21.71956071 8.11500055 37.35287037 29.1185319 37.35287098 53.70221002 0 31.62463494-25.65772246 57.28235738-57.28235799 57.28235799s-57.28235738-25.65772246-57.28235739-57.28235799V349.71445095c0-15.87198674-12.76919227-28.64117899-28.64117841-28.64117899H235.13527168c-15.87198674 0-28.64117899 12.76919227-28.64117839 28.64117899v295.95884686c0 106.80772923 97.9766993 191.17986839 208.84192819 167.90891045 64.92000505-13.60456013 117.30949489-66.11338791 130.91405503-130.91405443 20.76485489-98.9314051-44.15515076-187.599721-134.25552595-205.5004573zM455.91102486 206.50855717c-10.97911857-0.59669143-20.2875014 8.11500055-20.2875014 19.09411913v37.71088535c0 10.1437507 7.8763241 18.49742769 17.90073627 18.97478063 154.42368882 8.35367702 278.53546348 133.65883453 287.48583194 288.20186126 0.59669143 10.02441278 8.95036844 17.90073687 18.9747812 17.90073687h38.3075768c10.97911857 0 19.69081055-9.30838282 19.09411912-20.28750139C807.2428175 373.34342327 650.6710406 216.77164579 455.91102486 206.50855717z m0.35801498 114.56471479c-11.09845651-0.83536788-20.64551637 7.99566263-20.64551638 19.21345767v38.30757618c0 10.02441278 7.75698617 18.25875125 17.66205985 18.9747812 91.65177184 7.51830912 164.68677804 81.38868322 172.92111711 173.2791315 0.95470581 9.90507425 9.06970637 17.54272189 18.9747806 17.54272191h38.42691531c11.09845651 0 20.04882493-9.54705986 19.21345707-20.64551637-10.02441278-131.39140734-115.16140623-236.52840139-246.55281357-246.67215209z" fill="#3796F6" p-id="1095"></path></svg>